<?xml version="1.0" standalone="no"?>
<!DOCTYPE svg PUBLIC "-//W3C//DTD SVG 20010904//EN"
 "http://www.w3.org/TR/2001/REC-SVG-20010904/DTD/svg10.dtd">
<svg version="1.0" xmlns="http://www.w3.org/2000/svg"
 width="500.000000pt" height="500.000000pt" viewBox="0 0 500.000000 500.000000"
 preserveAspectRatio="xMidYMid meet">

<g transform="translate(0.000000,500.000000) scale(0.100000,-0.100000)"
fill="#000000" stroke="none">
<path d="M2661 3455 c-17 -65 -48 -207 -56 -252 -4 -24 -10 -43 -13 -42 -6 0
-125 129 -212 229 l-31 35 7 -185 6 -186 -58 -34 c-37 -22 -74 -56 -102 -93
-24 -31 -58 -68 -75 -81 -46 -35 -173 -65 -305 -73 -62 -3 -115 -10 -118 -15
-11 -17 8 -69 47 -127 40 -60 93 -103 158 -126 36 -13 35 -14 -39 -14 -105 -2
-201 -24 -298 -71 -300 -143 -371 -517 -143 -749 104 -105 218 -149 581 -225
412 -86 615 -85 856 6 265 99 443 299 501 563 22 95 21 271 -1 355 -49 182
-142 347 -268 473 -53 53 -90 98 -93 115 -14 65 -29 111 -56 165 -33 67 -162
246 -230 321 l-47 51 -11 -40z m99 -225 c44 -86 61 -174 58 -288 l-3 -96 -38
33 c-21 19 -50 55 -65 80 -25 42 -27 55 -27 151 0 77 5 115 17 143 9 20 19 37
22 37 3 0 19 -27 36 -60z m-338 -399 c79 -50 78 -68 -1 -44 -44 12 -64 13
-109 4 -30 -6 -58 -9 -60 -6 -8 7 39 56 63 65 35 15 60 11 107 -19z m71 -159
c138 -51 222 -122 286 -242 26 -49 35 -80 40 -139 l6 -76 14 35 c7 19 16 85
18 145 4 94 2 119 -16 172 -28 82 -27 85 14 38 44 -50 91 -145 106 -216 23
-108 -5 -258 -65 -348 -19 -28 -31 -51 -27 -51 4 0 27 13 49 30 50 36 85 87
111 159 31 90 44 1 16 -117 -19 -80 -46 -133 -97 -188 -44 -48 -38 -55 20 -25
49 25 107 82 147 145 33 52 65 135 65 168 0 10 5 18 11 18 8 0 10 -21 4 -72
-20 -213 -143 -386 -357 -502 -75 -41 -231 -82 -348 -92 -142 -11 -361 25
-460 76 -42 22 -113 80 -106 87 2 2 23 -5 46 -17 72 -37 185 -60 289 -60 168
0 305 51 386 143 25 28 45 55 45 60 0 4 -18 -2 -40 -13 -51 -26 -152 -50 -213
-50 l-49 0 36 42 c68 79 94 224 60 339 -19 64 -90 174 -140 219 -42 37 -178
104 -249 123 l-50 13 89 13 c69 11 104 11 160 2 74 -12 214 -72 274 -117 41
-32 41 -18 -1 35 -105 133 -235 182 -423 161 -167 -19 -286 17 -329 100 l-13
25 317 -1 c297 -1 319 -2 374 -22z m-402 -310 c80 -26 174 -86 234 -149 49
-50 59 -72 23 -49 -13 8 -58 26 -100 40 -169 57 -378 20 -470 -83 -44 -50 -88
-133 -88 -168 0 -35 -17 -36 -24 -2 -10 50 -7 80 14 139 10 30 17 56 15 58 -7
7 -62 -28 -96 -62 -58 -59 -92 -136 -93 -214 -1 -37 3 -83 8 -102 l8 -35 -32
30 c-56 52 -83 119 -88 215 -6 118 18 180 102 265 66 68 118 99 211 127 84 25
282 20 376 -10z"/>
</g>
</svg>
